# AST/ASF file generated using VICON BodyLanguage
# -----------------------------------------------
:version 1.10
:name VICON
:units
  mass 1.0
  length 0.45
  angle deg
:documentation
   .ast/.asf automatically generated from VICON data using
   VICON BodyBuilder and BodyLanguage model FoxedUp or BRILLIANT.MOD
:root
   order TX TY TZ RX RY RZ
   axis XYZ
   position 0 0 0  
   orientation 0 0 0 
:bonedata
  begin
     id 1 
     name lhipjoint
     direction 0.535335 -0.74333 0.401095 
     length 2.04549 
     axis 0 0 0  XYZ
  end
  begin
     id 2 
     name lfemur
     direction 0.34202 -0.939693 0  
     length 6.95643  
     axis 0 0 20  XYZ
    dof rx ry rz
    limits (-160.0 20.0)
           (-70.0 70.0)
           (-60.0 70.0)
  end
  begin
     id 3 
     name ltibia
     direction 0.34192 -0.939729 0   
     length 5.55969   
     axis 0 0 20   XYZ
    dof rx
    limits (-10.0 170.0)
  end
  begin
     id 4 
     name lfoot
     direction 0.216943 -0.596046 0.773088   
     length 2.27918   
     axis -90 7.62852e-016 20   XYZ
    dof rx rz
    limits (-45.0 90.0)
           (-70.0 20.0)
  end
  begin
     id 5 
     name ltoes
     direction 1.53519e-011 -4.21748e-011 1   
     length 1.05562   
     axis -90 7.62852e-016 20   XYZ
    dof rx
    limits (-90.0 20.0)
  end
  begin
     id 6 
     name rhipjoint
     direction -0.576368 -0.719173 0.38806   
     length 2.1142  
     axis 0 0 0  XYZ 
  end
  begin
     id 7 
     name rfemur
     direction -0.34202 -0.939693 0   
     length 7.07928   
     axis 0 0 -20   XYZ
    dof rx ry rz
    limits (-160.0 20.0)
           (-70.0 70.0)
           (-70.0 60.0)
  end
  begin
     id 8 
     name rtibia
     direction -0.34202 -0.939693 0   
     length 5.79974   
     axis 0 0 -20   XYZ
    dof rx
    limits (-10.0 170.0)
 end
 begin
     id 9 
     name rfoot
     direction -0.189288 -0.520065 0.832888   
     length 2.42173  
     axis -90 -7.62852e-016 -20   XYZ
    dof rx rz
    limits (-45.0 90.0)
           (-20.0 70.0)
  end
  begin
     id 10 
     name rtoes
     direction -1.53574e-011 -4.21658e-011 1   
     length 1.14469   
     axis -90 -7.62852e-016 -20   XYZ
    dof rx
    limits (-90.0 20.0)
  end
  begin
     id 11 
     name lowerback
     direction -0.00135702 0.993803 0.111144   
     length 1.91308   
     axis 0 0 0   XYZ
    dof rx ry rz
    limits (-20.0 45.0)
           (-30.0 30.0)
           (-30.0 30.0)
  end
  begin
     id 12 
     name upperback
     direction -0.0056745 0.999813 0.0184631   
     length 1.9212   
     axis 0 0 0   XYZ
    dof rx ry rz
    limits (-20.0 45.0)
           (-30.0 30.0)
           (-30.0 30.0)
  end
  begin
     id 13 
     name thorax
     direction -0.00733434 0.999426 -0.0330788   
     length 1.94196   
     axis 0 0 0   XYZ
    dof rx ry rz
    limits (-20.0 45.0)
           (-30.0 30.0)
           (-30.0 30.0)
  end
  begin
     id 14 
     name lowerneck
     direction 0.0563074 0.996944 -0.0541571   
     length 2.34257   
     axis 0 0 0   XYZ
    dof rx ry rz
    limits (-20.0 45.0)
           (-30.0 30.0)
           (-30.0 30.0)
  end
  begin
     id 15 
     name upperneck
     direction -0.0544519 0.976166 -0.210085   
     length 2.32506   
     axis 0 0 0   XYZ
    dof rx ry rz
    limits (-20.0 45.0)
           (-30.0 30.0)
           (-30.0 30.0)
  end
  begin
     id 16
     name head
     direction -0.0226035 0.997615 -0.0652205  
     length 2.3648  
     axis 0 0 0   XYZ
    dof rx ry rz
    limits (-20.0 45.0)
           (-30.0 30.0)
           (-30.0 30.0)
  end
  begin
     id 17 
     name lclavicle
     direction 0.92109 0.381297 -0.0787716  
     length 4.0487  
     axis 0 0 0   XYZ
    dof ry rz
    limits (-20.0 10.0)
           (0.0 20.0)
  end
  begin
     id 18 
     name lhumerus
     direction 1 -4.48986e-011 3.56724e-027   
     length 4.94991   
     axis 180 -30 -90   XYZ
    dof rx ry rz
    limits (-60.0 90.0)
           (-90.0 90.0)
           (-90.0 90.0)
  end
  begin
     id 19
     name lradius
     direction 1 -4.48981e-011 8.62147e-027   
     length 2.7606   
     axis 180 -30 -90   XYZ
    dof rx
    limits (-10.0 170.0)
  end
  begin
     id 20
     name lwrist
     direction 1 -4.48989e-011 1.59799e-026   
     length 1.3803   
     axis -1.17785e-014 90 90   XYZ
    dof ry
    limits (-180.0 0.0)
 end
  begin
     id 21 
     name lhand
     direction 1 -4.48896e-011 3.19599e-026   
     length 0.843936   
     axis -2.03931e-014 90 90   XYZ
    dof rx rz
    limits (-90.0 90.0)
           (-45.0 45.0)
  end
  begin
     id 22 
     name lfingers
     direction 1 -4.48887e-011 6.39197e-026   
     length 0.680403   
     axis -4.07862e-014 90 90   XYZ
    dof rx
    limits (0.0 90.0)
  end
  begin
     id 23
     name lthumb
     direction 0.707107 -6.348e-011 0.707107   
     length 0.976926   
     axis -90 45 2.85299e-015   XYZ
    dof rx rz
    limits (-45.0 45.0)
           (-45.0 45.0)
  end
  begin
     id 24 
     name rclavicle
     direction -0.951104 0.307692 -0.026953   
     length 4.21801  
     axis 0 0 0   XYZ 
    dof ry rz
    limits (-10.0 20.0)
           (-20.0 0.0)
  end
  begin
     id 25 
     name rhumerus
     direction -1 -4.4896e-011 -1.8171e-018  
     length 4.32982   
     axis 180 30 90   XYZ
    dof rx ry rz
    limits (-90.0 60.0)
           (-90.0 90.0)
           (-90.0 90.0)
  end
  begin
     id 26 
     name rradius
     direction -1 -4.48959e-011 8.25165e-027   
     length 3.20057   
     axis 180 30 90   XYZ
    dof rx
    limits (-10.0 170.0)
  end
  begin
     id 27 
     name rwrist
     direction -1 -4.48997e-011 1.59799e-026   
     length 1.60029   
     axis -1.17785e-014 -90 -90   XYZ
    dof ry
    limits (-180.0 0.0)
  end
  begin
     id 28
     name rhand
     direction -1 -4.49023e-011 3.19599e-026   
     length 0.960433   
     axis -2.03931e-014 -90 -90   XYZ
    dof rx rz
    limits (-90.0 90.0)
           (-45.0 45.0)
  end
  begin
     id 29
     name rfingers
     direction -1 -4.48802e-011 6.39197e-026   
     length 0.774326   
     axis -4.07862e-014 -90 -90   XYZ
    dof rx
    limits (0.0 90.0)
  end
  begin
     id 30
     name rthumb
     direction -0.707107 -6.34876e-011 0.707107   
     length 1.11178   
     axis -90 -45 -2.85299e-015   XYZ
    dof rx rz
    limits (-45.0 45.0)
           (-45.0 45.0)
  end
:hierarchy
  begin
    root lhipjoint rhipjoint lowerback
    lhipjoint lfemur
    lfemur ltibia
    ltibia lfoot
    lfoot ltoes
    rhipjoint rfemur
    rfemur rtibia
    rtibia rfoot
    rfoot rtoes
    lowerback upperback
    upperback thorax
    thorax lowerneck lclavicle rclavicle
    lowerneck upperneck
    upperneck head
    lclavicle lhumerus
    lhumerus lradius
    lradius lwrist
    lwrist lhand lthumb
    lhand lfingers
    rclavicle rhumerus
    rhumerus rradius
    rradius rwrist
    rwrist rhand rthumb
    rhand rfingers
end

#!OML:ASF C:\KaitlinTest1\Natural Motions\Nikki\Session 2\Nikki.ASF
:FULLY-SPECIFIED
:DEGREES
335
root -13.2792 15.9333 4.33844 43.6116 83.1458 22.0809
lowerback -2.8782 -2.32726 0.410277
upperback -7.52558 -2.9339 -0.287522
thorax -6.23672 -1.41017 -0.459979
lowerneck -23.8165 -10.2736 -8.86794
upperneck 0.735451 44.699 2.85033
head 168.06 56.2013 -39.3822
rclavicle -3.21985e-014 -8.00108e-015
rhumerus 30.8381 36.9228 -84.2362
rradius 60.9403
rwrist -12.6308
rhand -39.1274 8.60297
rfingers 7.12502
rthumb -12.1265 -21.0256
lclavicle -3.21985e-014 -8.00108e-015
lhumerus 33.0684 -14.5834 69.7706
lradius 66.2243
lwrist 14.9248
lhand -36.8955 -0.00370807
lfingers 7.12502
lthumb -9.97384 29.74
rfemur -45.4789 -8.45598 21.4466
rtibia 48.219
rfoot -20.6796 3.19019
rtoes -5.05708e-013
lfemur -41.6511 -1.93227 -19.7355
ltibia 41.8405
lfoot -10.8436 7.66709
ltoes -3.57812e-013
336
root -13.2295 16.0247 4.34744 42.8462 83.2801 21.6846
lowerback -3.32396 -2.37229 0.490098
upperback -7.40946 -2.99362 -0.284843
thorax -5.86323 -1.44511 -0.521705
lowerneck -23.613 -10.3011 -8.66366
upperneck 0.812464 44.5547 2.87662
head 167.51 56.4519 -39.6854
rclavicle -2.59616e-014 -2.5755e-014
rhumerus 30.5933 37.4077 -83.8638
rradius 62.3512
rwrist -12.3813
rhand -39.1988 8.85452
rfingers 7.12502
rthumb -12.1953 -20.77
lclavicle -2.59616e-014 -2.5755e-014
lhumerus 32.6961 -14.5695 69.5322
lradius 67.8176
lwrist 15.0393
lhand -36.5597 -0.0260355
lfingers 7.12502
lthumb -9.6499 29.7329
rfemur -43.8341 -8.97237 21.6353
rtibia 46.2714
rfoot -20.0815 3.83839
rtoes -6.36111e-014
lfemur -40.02 -1.44422 -19.7901
ltibia 39.8073
lfoot -10.2458 6.93203
ltoes 5.56597e-014
337
root -13.1757 16.1101 4.35531 41.251 83.3555 20.4929
lowerback -3.21911 -2.34011 0.440358
upperback -7.68755 -2.93046 -0.11234
thorax -6.20748 -1.39983 -0.305841
lowerneck -22.8282 -10.1759 -9.0128
upperneck 1.11603 44.9707 3.00726
head 168.1 56.0154 -39.2179
rclavicle -7.69359e-015 -1.42131e-014
rhumerus 29.1286 37.6589 -84.2874
rradius 63.8247
rwrist -11.9716
rhand -38.8196 8.77632
rfingers 7.12502
rthumb -11.8297 -20.8695
lclavicle -7.69359e-015 -1.42131e-014
lhumerus 31.7957 -15.0053 69.3178
lradius 69.5134
lwrist 15.6545
lhand -36.2964 0.26677
lfingers 7.12502
lthumb -9.39584 30.0373
rfemur -42.1411 -9.29764 21.7915
rtibia 44.3214
rfoot -19.468 4.37765
rtoes 2.06736e-014
lfemur -38.2775 -0.892125 -19.7975
ltibia 37.733
lfoot -9.59082 6.23305
ltoes -2.54444e-014
338
root -13.1256 16.1916 4.36162 40.3783 83.4224 19.948
lowerback -3.46822 -2.29797 0.490676
upperback -7.7891 -2.86283 -0.0598801
thorax -6.17328 -1.36411 -0.289087
lowerneck -22.1985 -10.0991 -9.26613
upperneck 1.24872 44.8636 3.06811
head 168.421 56.1757 -38.9026
rclavicle 1.7726e-014 3.8763e-015
rhumerus 28.3983 37.9924 -83.9189
rradius 65.1603
rwrist -11.7849
rhand -38.6797 8.73102
rfingers 7.12502
rthumb -11.6948 -20.9226
lclavicle 1.7726e-014 3.8763e-015
lhumerus 31.1809 -15.3216 69.1662
lradius 71.0011
lwrist 16.1996
lhand -35.8467 0.360481
lfingers 7.12502
lthumb -8.96185 30.1501
rfemur -40.5467 -9.67136 21.9051
rtibia 42.397
rfoot -18.9056 4.84333
rtoes -2.38542e-015
lfemur -36.6822 -0.370155 -19.8717
ltibia 35.6792
lfoot -8.89791 5.51096
ltoes 1.90833e-014
